<?xml version="1.0" encoding="utf-8"?>
<!-- Generator: Adobe Illustrator 22.1.0, SVG Export Plug-In . SVG Version: 6.00 Build 0)  -->
<svg version="1.1" id="Layer_1" xmlns="http://www.w3.org/2000/svg" xmlns:xlink="http://www.w3.org/1999/xlink" x="0px" y="0px"
	 viewBox="0 0 1366 768" style="enable-background:new 0 0 1366 768;" xml:space="preserve">
<g>
	<path d="M718.429,383.043c0.67,19.315-14.775,35.698-34.303,36.386c-19.385,0.683-35.954-14.78-36.557-34.117
		c-0.614-19.678,14.61-36.049,34.169-36.741C701.393,347.876,717.742,363.235,718.429,383.043z M671.301,382.989
		c0-0.586-0.034-1.143,0.005-1.695c0.235-3.333,1.01-6.541,2.266-9.637c0.145-0.357,0.382-0.829,0.261-1.115
		c-0.454-1.077-1.038-2.099-1.615-3.222c-2.979,3.98-5.509,12.179-4.945,15.879c0.307,0.054,0.643,0.114,1.055,0.187
		c-0.204,10.739,4.416,19.105,12.486,25.931c0.496-0.48,0.944-0.913,1.471-1.422c-6.587-6.97-9.847-15.154-9.826-24.616
		C672.019,383.169,671.682,383.084,671.301,382.989z M682.787,360.224c6.32,6.604,9.556,14.563,9.716,23.708
		c0.492,0.102,0.827,0.172,1.206,0.25c0.085,3.872-0.618,7.532-1.893,11.1c-0.129,0.361-0.33,0.832-0.205,1.126
		c0.477,1.117,1.075,2.182,1.719,3.446c0.338-0.563,0.552-0.889,0.738-1.231c2.25-4.138,3.501-8.557,3.792-13.262
		c0.057-0.916-0.045-1.558-1.206-1.518c-0.066-10.417-4.656-18.522-12.502-25.195C683.688,359.183,683.275,359.659,682.787,360.224z
		 M670.257,362.107c7.764,15.056,15.458,29.975,23.192,44.973c0.828-0.438,1.514-0.8,2.271-1.2
		c-7.761-15.049-15.455-29.968-23.181-44.95C671.728,361.348,671.064,361.691,670.257,362.107z M689.435,400.744
		c-1.848,2.493-3.595,4.849-5.251,7.083c0.386,0.514,0.765,1.019,1.296,1.727c1.801-1.991,3.44-3.777,5.034-5.604
		c0.174-0.199,0.198-0.683,0.086-0.947C690.274,402.239,689.844,401.519,689.435,400.744z M679.481,358.584
		c-1.526,1.623-3,3.168-4.434,4.75c-0.157,0.174-0.19,0.61-0.089,0.84c0.329,0.744,0.748,1.448,1.148,2.197
		c1.639-2.153,3.199-4.202,4.855-6.377C680.546,359.598,680.095,359.169,679.481,358.584z"/>
</g>
</svg>
