<svg aria-hidden="true" style="position: absolute; width: 0; height: 0; overflow: hidden;" version="1.1" xmlns="http://www.w3.org/2000/svg" xmlns:xlink="http://www.w3.org/1999/xlink">
<defs>
<symbol id="icon-icon" viewBox="0 0 32 32">
<title>icon</title>
<path d="M31.99 15.568c0.302 8.717-6.668 16.111-15.482 16.422-8.749 0.308-16.227-6.671-16.499-15.398-0.277-8.881 6.594-16.27 15.421-16.582 8.871-0.314 16.249 6.618 16.559 15.558zM10.72 15.544c0-0.264-0.015-0.516 0.002-0.765 0.106-1.504 0.456-2.952 1.023-4.349 0.065-0.161 0.172-0.374 0.118-0.503-0.205-0.486-0.468-0.947-0.729-1.454-1.345 1.796-2.486 5.497-2.232 7.167 0.138 0.024 0.29 0.051 0.476 0.084-0.092 4.847 1.993 8.622 5.635 11.703 0.224-0.217 0.426-0.412 0.664-0.642-2.973-3.146-4.444-6.839-4.435-11.11-0.199-0.050-0.351-0.088-0.523-0.131zM15.904 5.269c2.852 2.98 4.313 6.573 4.385 10.7 0.222 0.046 0.373 0.078 0.544 0.113 0.038 1.748-0.279 3.399-0.854 5.010-0.058 0.163-0.149 0.375-0.092 0.508 0.215 0.504 0.485 0.985 0.776 1.555 0.153-0.254 0.249-0.401 0.333-0.555 1.015-1.867 1.58-3.862 1.711-5.986 0.026-0.413-0.020-0.703-0.544-0.685-0.030-4.701-2.101-8.359-5.642-11.371-0.21 0.241-0.396 0.456-0.616 0.711zM10.249 6.119c3.504 6.795 6.977 13.529 10.467 20.297 0.374-0.198 0.683-0.361 1.025-0.542-3.503-6.792-6.975-13.525-10.462-20.287-0.366 0.189-0.666 0.344-1.030 0.531zM18.904 23.557c-0.834 1.125-1.622 2.188-2.37 3.197 0.174 0.232 0.345 0.46 0.585 0.78 0.813-0.899 1.553-1.705 2.272-2.529 0.079-0.090 0.089-0.308 0.039-0.428-0.147-0.345-0.341-0.67-0.526-1.020zM14.412 4.529c-0.689 0.732-1.354 1.43-2.001 2.144-0.071 0.079-0.086 0.275-0.040 0.379 0.149 0.336 0.337 0.654 0.518 0.991 0.74-0.972 1.444-1.897 2.191-2.878-0.187-0.179-0.391-0.372-0.668-0.636z"></path>
</symbol>
<symbol id="icon-play4" viewBox="0 0 32 32">
<title>play4</title>
<path d="M6 4l20 12-20 12z"></path>
</symbol>
<symbol id="icon-facebook" viewBox="0 0 32 32">
<title>facebook</title>
<path d="M19 6h5v-6h-5c-3.86 0-7 3.14-7 7v3h-4v6h4v16h6v-16h5l1-6h-6v-3c0-0.542 0.458-1 1-1z"></path>
</symbol>
<symbol id="icon-twitter" viewBox="0 0 32 32">
<title>twitter</title>
<path d="M32 7.075c-1.175 0.525-2.444 0.875-3.769 1.031 1.356-0.813 2.394-2.1 2.887-3.631-1.269 0.75-2.675 1.3-4.169 1.594-1.2-1.275-2.906-2.069-4.794-2.069-3.625 0-6.563 2.938-6.563 6.563 0 0.512 0.056 1.012 0.169 1.494-5.456-0.275-10.294-2.888-13.531-6.862-0.563 0.969-0.887 2.1-0.887 3.3 0 2.275 1.156 4.287 2.919 5.463-1.075-0.031-2.087-0.331-2.975-0.819 0 0.025 0 0.056 0 0.081 0 3.181 2.263 5.838 5.269 6.437-0.55 0.15-1.131 0.231-1.731 0.231-0.425 0-0.831-0.044-1.237-0.119 0.838 2.606 3.263 4.506 6.131 4.563-2.25 1.762-5.075 2.813-8.156 2.813-0.531 0-1.050-0.031-1.569-0.094 2.913 1.869 6.362 2.95 10.069 2.95 12.075 0 18.681-10.006 18.681-18.681 0-0.287-0.006-0.569-0.019-0.85 1.281-0.919 2.394-2.075 3.275-3.394z"></path>
</symbol>
</defs>
</svg>
